<svg width="84" height="86" viewBox="0 0 84 86" fill="none" xmlns="http://www.w3.org/2000/svg">
<g clip-path="url(#clip0_3_101)">
<path d="M84 43.9562C84 40.419 83.716 37.8419 83.0938 35.1641H42.8564V51.1226H66.4747C65.9975 55.0921 63.4282 61.0608 57.712 65.0706L57.6333 65.6046L70.3557 75.4945L71.2375 75.5822C79.3342 68.0843 84 57.0475 84 43.9562Z" fill="#4285F4"/>
<path d="M42.8564 86.0009C54.4278 86.0009 64.1404 82.1787 71.2374 75.584L57.712 65.0741C54.0931 67.6082 49.2351 69.3707 42.8555 69.3707C31.521 69.3707 21.9019 61.8701 18.4735 51.5015L17.9702 51.5444L4.74094 61.8193L4.56616 62.3024C11.6186 76.3495 26.0975 86.0009 42.8564 86.0009Z" fill="#34A853"/>
<path d="M18.4788 51.5076C17.5412 48.7702 17.0585 45.8967 17.05 43.0022C17.05 40.0393 17.5743 37.1738 18.4316 34.4968L18.4063 33.926L5.01102 23.4889L4.57406 23.6985C1.56778 29.6856 0.00183105 36.2964 0.00183105 43.0004C0.00183105 49.7045 1.56778 56.3153 4.57406 62.3024L18.4788 51.5076Z" fill="#FBBC05"/>
<path d="M42.8564 16.6276C50.9025 16.6276 56.3312 20.1148 59.4283 23.0286L71.5215 11.1815C64.0932 4.25445 54.4278 0 42.8573 0C26.0931 0 11.6186 9.65142 4.57227 23.7011L18.4281 34.4968C21.9062 24.1281 31.5253 16.6276 42.8564 16.6276Z" fill="#EB4335"/>
</g>
<defs>
<clipPath id="clip0_3_101">
<rect width="84" height="86" fill="white"/>
</clipPath>
</defs>
</svg>
