<svg width="601" height="232" viewBox="0 0 601 232" fill="none" xmlns="http://www.w3.org/2000/svg">
<path d="M385.762 128.212C372.736 158.688 387.189 182.903 396.959 194.036L376.38 196.729C358.332 171.987 358.546 135.673 373.656 109.661C389.95 81.612 446.797 50.5429 493.2 89.615C538.678 127.909 523.033 176.343 511.358 194.036C480.449 241.193 431.293 234.392 410.881 225.154L410.276 204.808C440.54 221.563 475.041 212.886 493.2 188.352C511.358 163.817 508.937 125.818 481.094 103.677C453.251 81.5365 402.299 89.5198 385.762 128.212Z" fill="#FF6600"/>
<path d="M383.946 220.366C374.019 211.989 374.766 200.519 376.38 195.832L396.959 194.036C394.942 197.128 392.117 204.149 396.959 207.501C401.802 210.852 407.855 207.102 410.276 204.808L411.789 224.854C406.644 226.849 393.872 228.744 383.946 220.366Z" fill="#FF6600"/>
<path fill-rule="evenodd" clip-rule="evenodd" d="M534.749 1.68034C521.366 5.61664 512.754 10.496 505.046 18.5087C499.411 24.367 496.815 28.4715 494.444 35.2724C490.545 46.4565 490.509 56.937 494.328 69.4538L495.951 74.773L502.336 74.4181C524.452 73.1872 539.759 60.163 544.493 38.5486C545.998 31.6813 546.265 20.3583 545.103 12.6718C543.793 4.00215 542.744 0.131071 541.67 0.00301274C541.193 -0.0538356 538.078 0.700755 534.749 1.68034ZM533.595 16.9456C534.34 20.8747 533.413 33.8882 532.051 38.6001C529.242 48.3229 523.853 55.2782 516.288 58.9446C511.519 61.2556 505.717 62.6003 504.729 61.6231C503.55 60.4574 503.347 49.0889 504.416 44.088C506.83 32.795 514.414 23.5371 525.91 17.8468C529.334 16.1527 532.37 14.7662 532.658 14.7662C532.946 14.7662 533.367 15.747 533.595 16.9456ZM545.83 63.8569C533.942 66.7472 522.926 74.2189 515.04 84.7412L512.154 88.5931L514.789 91.9777C519.096 97.513 526.069 103.534 531.244 106.189C538.539 109.93 542.08 110.772 550.486 110.765C559.43 110.757 562.976 109.86 572.882 105.1C581.717 100.854 588.945 95.5484 595.827 88.2574L601 82.7761L598.506 80.6362C590.457 73.7324 581.24 68.0727 573.993 65.5863C564.794 62.4297 554.342 61.7882 545.83 63.8569ZM566.506 75.8382C573.15 77.6585 583.211 82.8676 582.746 84.2463C582.413 85.2361 572.938 91.934 568.948 94.0009C560.7 98.2723 551.484 100.029 544.779 98.6074C539.989 97.5919 534.589 94.8267 530.815 91.4553L527.486 88.4824L529.604 86.2839C534.267 81.4452 541.853 77.0643 548.206 75.5425C553.528 74.2679 561.228 74.3924 566.506 75.8382Z" fill="#FF6600"/>
<path d="M110.513 231.582C94.0492 231.379 79.026 228.53 65.4434 223.037C52.0666 217.34 40.4391 209.609 30.5609 199.843C20.8884 190.077 13.3768 178.785 8.02608 165.967C2.67536 152.946 0 139.111 0 124.462C0 109.813 2.67536 96.0795 8.02608 83.2617C13.3768 70.4439 20.8884 59.2538 30.5609 49.6913C40.4391 39.9253 52.0666 32.1939 65.4434 26.4971C79.026 20.8003 94.0492 17.9519 110.513 17.9519H135.517V37.4838H111.439C98.8855 37.6873 87.155 40.027 76.2478 44.5031C65.5463 48.7757 56.1826 54.8794 48.1565 62.8143C40.1304 70.5456 33.8536 79.7012 29.3261 90.281C25.0043 100.861 22.8435 112.254 22.8435 124.462C22.8435 137.076 25.0043 148.673 29.3261 159.253C33.8536 169.629 40.1304 178.785 48.1565 186.72C56.1826 194.655 65.5463 200.86 76.2478 205.336C87.155 209.609 98.8855 211.745 111.439 211.745H135.517V231.582H110.513Z" fill="#FF6600"/>
<path d="M154.326 231.582V75.9373H175.935V231.582H154.326ZM165.13 47.8601C161.014 47.8601 157.413 46.3342 154.326 43.2823C151.239 40.2305 149.696 36.67 149.696 32.6008C149.696 28.3282 151.239 24.7677 154.326 21.9193C157.413 18.8675 161.014 17.3415 165.13 17.3415C169.452 17.3415 173.054 18.8675 175.935 21.9193C179.022 24.7677 180.565 28.3282 180.565 32.6008C180.565 36.67 179.022 40.2305 175.935 43.2823C173.054 46.3342 169.452 47.8601 165.13 47.8601Z" fill="#FF6600"/>
<path d="M241.213 231.582C227.219 231.582 216.208 227.615 208.182 219.68C200.362 211.745 196.452 200.962 196.452 187.33V36.8735H218.061V184.889C218.061 193.841 220.324 200.758 224.852 205.641C229.585 210.524 236.48 212.966 245.535 212.966H275.787V231.582H241.213ZM196.452 94.5536V75.9373H276.404V94.5536H196.452Z" fill="#FF6600"/>
<path d="M295.657 231.582V120.189C295.657 106.354 299.567 95.5709 307.387 87.8395C315.413 79.9047 326.423 75.9373 340.417 75.9373H367.583V94.5536H344.739C335.684 94.5536 328.79 96.9951 324.057 101.878C319.529 106.761 317.265 113.679 317.265 122.631V231.582H295.657Z" fill="#FF6600"/>
</svg>
