<svg width="86" height="86" viewBox="0 0 86 86" fill="none" xmlns="http://www.w3.org/2000/svg">
<g clip-path="url(#clip0_3_106)">
<path d="M43 86C66.7482 86 86 66.7482 86 43C86 19.2518 66.7482 0 43 0C19.2518 0 0 19.2518 0 43C0 66.7482 19.2518 86 43 86Z" fill="#1977F3"/>
<path d="M59.7382 55.4332L61.6429 43.0009H49.7182V34.9338C49.7182 31.5355 51.3812 28.2156 56.7263 28.2156H62.1462V17.6338C62.1462 17.6338 57.2244 16.7933 52.5193 16.7933C42.6989 16.7933 36.2776 22.7432 36.2776 33.5246V43.0009H25.3611V55.4332H36.2819V85.4804C38.5042 85.8289 40.7505 86.0029 43 86.0009C45.2494 85.9998 47.4954 85.8258 49.7182 85.4804V55.4332H59.7382Z" fill="white"/>
</g>
<defs>
<clipPath id="clip0_3_106">
<rect width="86" height="86" fill="white"/>
</clipPath>
</defs>
</svg>
